<svg xmlns="http://www.w3.org/2000/svg" version="1.1" xmlns:xlink="http://www.w3.org/1999/xlink" xmlns:svgjs="http://svgjs.dev/svgjs" width="100%" height="100%" viewBox="0 0 1000 600"><rect width="1000" height="600" x="0" y="0" fill="#3f3f3f"/><g><rect width="333.3333333333333" height="333.3333333333333" rx="13.333333333333334" ry="13.333333333333334" y="234.72232693441785" fill="#3f3f3f" transform="matrix(0.5882350892592252,0,0,0.5882350892592252,-29.52831918345116,63.8889261265453)" x="334.4098815917968"/><path d="M331.2440281451341 476.3889914294704L331.2440281451341 476.3889914294704Q312.126381721849 476.3889914294704 296.52180707720174 467.44291329549725Q280.9580821043991 458.4559854896795 271.8077556112028 441.7076200333827Q262.69827878985114 424.91840490524123 262.69827878985114 401.7157912974935L262.69827878985114 401.7157912974935Q262.69827878985114 378.18638031498875 271.9711542985813 361.39716518684736Q281.2440298073115 344.64879973055054 295.949911671377 335.5393229091989Q310.65579353544246 326.3889964160026 326.83226358591446 326.3889964160026L326.83226358591446 326.3889964160026Q354.16069404996944 326.3889964160026 369.0299746014134 344.64879973055054Q383.8992551528574 362.8677533732539 383.8992551528574 393.464157584879L383.8992551528574 393.464157584879Q383.8992551528574 397.3040267382739 383.7358564654789 400.98049720429026Q383.5724577781004 404.65696767030664 383.0005623722756 407.2713466683627L383.0005623722756 407.2713466683627L286.5136374752683 407.2713466683627Q287.9842256616748 429.9429145421303 300.8110226208875 443.4641559227016Q313.5969699082555 456.9853973032729 334.18520451794717 456.9853973032729L334.18520451794717 456.9853973032729Q344.479321822793 456.9853973032729 353.1394522538538 453.9216719149259Q361.8404323567592 450.81709685473436 369.7652686946167 445.83343688968995L369.7652686946167 445.83343688968995L378.3028501101436 461.68310956540495Q369.1933732887919 467.5654623110311 357.55121681307344 471.9772268702508Q345.9499100091996 476.3889914294704 331.2440281451341 476.3889914294704ZM286.2276897723559 389.95108580624117L286.2276897723559 389.95108580624117L362.69827546549635 389.95108580624117Q362.69827546549635 368.17821071305536 353.42539995676617 356.8628516120939Q344.1933741198806 345.50664283928774 327.4041589917392 345.50664283928774L327.4041589917392 345.50664283928774Q312.41232942476137 345.50664283928774 300.4842252461305 357.1487993150063Q288.5969707393442 368.7501061188801 286.2276897723559 389.95108580624117ZM443.29467801494405 472.87591965083254L419.1933716266145 472.87591965083254L419.1933716266145 329.9429178664851L439.1688611586368 329.9429178664851L441.25219442271276 355.80076014413356L442.1100375314499 355.80076014413356Q449.4629784634826 342.27951876356224 460.0430434712409 334.35468242570477Q470.6639581508437 326.3889964160026 482.71461134500845 326.3889964160026L482.71461134500845 326.3889964160026Q491.25219276053537 326.3889964160026 497.99238861489863 329.33017278881573L497.99238861489863 329.33017278881573L493.29467635276666 350.53115247617677Q489.7816045741288 349.3465119926826 486.84042820131566 348.77461658685786Q483.8992518285026 348.1618715091885 479.487487269283 348.1618715091885L479.487487269283 348.1618715091885Q470.3371607760867 348.1618715091885 460.49238986153176 355.5148124412212Q450.6476189469768 362.8677533732539 443.29467801494405 381.12755668780187L443.29467801494405 381.12755668780187L443.29467801494405 472.87591965083254ZM614.4548030439285 472.87591965083254L506.24402232751316 472.87591965083254L506.24402232751316 459.92657367608604L581.5299675371596 349.632459695595L514.454806368283 349.632459695595L514.454806368283 329.9429178664851L612.1263717487845 329.9429178664851L612.1263717487845 342.8922638412316L536.8404265391382 453.18637782172266L614.4548030439285 453.18637782172266L614.4548030439285 472.87591965083254ZM739.4547988884849 472.87591965083254L631.2440181720697 472.87591965083254L631.2440181720697 459.92657367608604L706.529963381716 349.632459695595L639.4548022128397 349.632459695595L639.4548022128397 329.9429178664851L737.1263675933412 329.9429178664851L737.1263675933412 342.8922638412316L661.8404223836949 453.18637782172266L739.4547988884849 453.18637782172266L739.4547988884849 472.87591965083254Z " fill="#c8c8c8" transform="matrix(0.5882350892592252,0,0,0.5882350892592252,-29.52831918345116,63.8889261265453)"/><path d="M761.2572195142831 476.38899284395336L751.0765441888233 476.38899284395336L796.3711228358925 328.76920062478484L806.5517981613524 328.76920062478484L761.2572195142831 476.38899284395336ZM852.0349078329672 449.2405253093936L835.750540587845 449.2405253093936L812.8440211055603 366.7817684487821L827.1016798368177 366.7817684487821L839.3090636761423 414.45655128073895Q840.6759136040976 420.23031390744654 841.8542325075073 425.90981102188135Q843.032551410917 431.58930813631616 844.234436692395 437.36307076302376L844.234436692395 437.36307076302376L844.9178616563726 437.36307076302376Q846.2611452062596 431.58930813631616 847.6279951342149 425.90981102188135Q848.9712786841019 420.23031390744654 850.5030932585346 414.45655128073895L850.5030932585346 414.45655128073895L863.2289374153594 366.7817684487821L876.8031711826393 366.7817684487821L889.6939799859415 414.45655128073895Q891.2257945603742 420.23031390744654 892.6633436225341 425.90981102188135Q894.1244590627621 431.58930813631616 895.4677426126491 437.36307076302376L895.4677426126491 437.36307076302376L896.1511675766267 437.36307076302376Q897.518017504582 431.58930813631616 898.7906019202644 425.90981102188135Q900.063186335947 420.23031390744654 901.2415052393567 414.45655128073895L901.2415052393567 414.45655128073895L913.2839244322039 366.7817684487821L926.5282289065291 366.7817684487821L904.4700990346993 449.2405253093936L887.5023068255995 449.2405253093936L875.6248522792296 404.95930091925675Q874.093037704797 399.0205736460718 872.8204532891144 393.2468110193642Q871.547868873432 387.4730483926566 870.0160542989994 381.20439182651694L870.0160542989994 381.20439182651694L869.3326293350217 381.20439182651694Q867.9893457851347 387.4730483926566 866.6224958571794 393.341076531637Q865.2792123072924 399.18553829254915 863.5824330863824 405.12426556573405L863.5824330863824 405.12426556573405L852.0349078329672 449.2405253093936ZM976.5832159233735 451.2672338232583L976.5832159233735 451.2672338232583Q966.567505244391 451.2672338232583 957.824378981091 446.1768961605284Q949.0812527177909 441.0865584977984 943.755251274379 431.4243434898388Q938.405683452899 421.7621284818792 938.405683452899 408.18789471459934L938.405683452899 408.18789471459934Q938.405683452899 394.26016527629656 943.755251274379 384.59795026833694Q949.0812527177909 374.9121688823091 957.824378981091 369.82183121957917Q966.567505244391 364.7314935568492 976.5832159233735 364.7314935568492L976.5832159233735 364.7314935568492Q986.7638912488335 364.7314935568492 995.4127519998607 369.82183121957917Q1004.0616127508879 374.9121688823091 1009.411180572368 384.59795026833694Q1014.7607483938482 394.26016527629656 1014.7607483938482 408.18789471459934L1014.7607483938482 408.18789471459934Q1014.7607483938482 421.7621284818792 1009.411180572368 431.4243434898388Q1004.0616127508879 441.0865584977984 995.4127519998607 446.1768961605284Q986.7638912488335 451.2672338232583 976.5832159233735 451.2672338232583ZM976.5832159233735 439.74327494791135L976.5832159233735 439.74327494791135Q987.2587851882655 439.74327494791135 993.8102382912235 431.0001486846113Q1000.3381250161133 422.25702242131126 1000.3381250161133 408.18789471459934L1000.3381250161133 408.18789471459934Q1000.3381250161133 393.93023598334184 993.8102382912235 385.092844207769Q987.2587851882655 376.2790188102644 976.5832159233735 376.2790188102644L976.5832159233735 376.2790188102644Q966.0490449268907 376.2790188102644 959.4504590677964 385.092844207769Q952.8283068306338 393.93023598334184 952.8283068306338 408.18789471459934L952.8283068306338 408.18789471459934Q952.8283068306338 422.25702242131126 959.4504590677964 431.0001486846113Q966.0490449268907 439.74327494791135 976.5832159233735 439.74327494791135ZM1050.393112032958 449.2405253093936L1036.4653825946552 449.2405253093936L1036.4653825946552 366.7817684487821L1048.0129078480704 366.7817684487821L1049.19122675148 381.69928576594907L1049.7096870689802 381.69928576594907Q1053.951635121255 373.89881462537676 1060.0553270409177 369.3269372801471Q1066.15901896058 364.7314935568492 1073.1346668687652 364.7314935568492L1073.1346668687652 364.7314935568492Q1078.0364735069497 364.7314935568492 1081.94849226627 366.4282727777592L1081.94849226627 366.4282727777592L1079.2383587884274 378.659222995152Q1077.1880838964948 377.97579803117435 1075.4913046755846 377.64586873821963Q1073.7945254546748 377.29237306719676 1071.2493566233097 377.29237306719676L1071.2493566233097 377.29237306719676Q1065.9940543141024 377.29237306719676 1060.3145571996674 381.5343211194717Q1054.635060085233 385.77626917174666 1050.393112032958 396.31044016822943L1050.393112032958 396.31044016822943L1050.393112032958 449.2405253093936ZM1109.0969598008296 449.2405253093936L1095.3577613870725 449.2405253093936L1095.3577613870725 328.4392713318301L1109.0969598008296 328.4392713318301L1109.0969598008296 410.21460322846406L1109.61542011833 410.21460322846406L1144.7293234399394 366.7817684487821L1160.1653010746063 366.7817684487821L1132.5219396006146 399.86896325652674L1163.9123551874495 449.2405253093936L1148.6413421992593 449.2405253093936L1124.532937435497 409.5311782644864L1109.0969598008296 427.51232473051857L1109.0969598008296 449.2405253093936ZM1195.6327000672386 449.2405253093936L1181.728537007004 449.2405253093936L1181.728537007004 378.1407626776517L1170.5109410465438 378.1407626776517L1170.5109410465438 367.6301580592371L1181.728537007004 366.7817684487821L1181.728537007004 353.70242862093437Q1181.728537007004 341.16511548865503 1187.572998767916 333.765272775242Q1193.4174605288285 326.38899643989726 1205.8133753926986 326.38899643989726L1205.8133753926986 326.38899643989726Q1209.725394152019 326.38899643989726 1213.283917240316 327.1666869161477Q1216.8424403286135 327.9208110143299 1219.5525738064557 329.0991299177396L1219.5525738064557 329.0991299177396L1216.512511035659 339.79826556069975Q1211.9170673123608 337.7715570468351 1207.1802253206538 337.7715570468351L1207.1802253206538 337.7715570468351Q1195.6327000672386 337.7715570468351 1195.6327000672386 353.70242862093437L1195.6327000672386 353.70242862093437L1195.6327000672386 366.7817684487821L1213.118952593839 366.7817684487821L1213.118952593839 378.1407626776517L1195.6327000672386 378.1407626776517L1195.6327000672386 449.2405253093936ZM1243.6609785702185 451.2672338232583L1243.6609785702185 451.2672338232583Q1235.836941051578 451.2672338232583 1232.3726834755535 446.4361263192785Q1228.8848595214608 441.6050188152987 1228.8848595214608 432.6026623932485L1228.8848595214608 432.6026623932485L1228.8848595214608 328.4392713318301L1242.8125889597636 328.4392713318301L1242.8125889597636 433.63958302824904Q1242.8125889597636 436.8446104455235 1243.990907863173 438.3057258857515Q1245.169226766583 439.74327494791135 1246.7010413410158 439.74327494791135L1246.7010413410158 439.74327494791135Q1247.384466304993 439.74327494791135 1247.9736257566979 439.6490094356386Q1248.562785208403 439.578310301434 1249.7646704898807 439.3897792768885L1249.7646704898807 439.3897792768885L1251.626414357268 449.92395027337125Q1250.2595644293128 450.6073752373489 1248.3978205619255 450.9373045303036Q1246.5360766945382 451.2672338232583 1243.6609785702185 451.2672338232583ZM1304.2265702054774 451.2672338232583L1304.2265702054774 451.2672338232583Q1294.210859526495 451.2672338232583 1285.467733263195 446.1768961605284Q1276.7481733779632 441.0865584977984 1271.3986055564828 431.4243434898388Q1266.049037735003 421.7621284818792 1266.049037735003 408.18789471459934L1266.049037735003 408.18789471459934Q1266.049037735003 394.26016527629656 1271.3986055564828 384.59795026833694Q1276.7481733779632 374.9121688823091 1285.467733263195 369.82183121957917Q1294.210859526495 364.7314935568492 1304.2265702054774 364.7314935568492L1304.2265702054774 364.7314935568492Q1314.4072455309374 364.7314935568492 1323.0561062819647 369.82183121957917Q1331.704967032992 374.9121688823091 1337.054534854472 384.59795026833694Q1342.404102675952 394.26016527629656 1342.404102675952 408.18789471459934L1342.404102675952 408.18789471459934Q1342.404102675952 421.7621284818792 1337.054534854472 431.4243434898388Q1331.704967032992 441.0865584977984 1323.0561062819647 446.1768961605284Q1314.4072455309374 451.2672338232583 1304.2265702054774 451.2672338232583ZM1304.2265702054774 439.74327494791135L1304.2265702054774 439.74327494791135Q1314.9257058484377 439.74327494791135 1321.4535925733276 431.0001486846113Q1327.9814792982174 422.25702242131126 1327.9814792982174 408.18789471459934L1327.9814792982174 408.18789471459934Q1327.9814792982174 393.93023598334184 1321.4535925733276 385.092844207769Q1314.9257058484377 376.2790188102644 1304.2265702054774 376.2790188102644L1304.2265702054774 376.2790188102644Q1293.7159655870628 376.2790188102644 1287.0938133499003 385.092844207769Q1280.4716611127378 393.93023598334184 1280.4716611127378 408.18789471459934L1280.4716611127378 408.18789471459934Q1280.4716611127378 422.25702242131126 1287.0938133499003 431.0001486846113Q1293.7159655870628 439.74327494791135 1304.2265702054774 439.74327494791135ZM1393.472443949729 449.2405253093936L1377.1880767046068 449.2405253093936L1354.2815572223221 366.7817684487821L1368.5392159535795 366.7817684487821L1380.7465997929044 414.45655128073895Q1382.1134497208595 420.23031390744654 1383.291768624269 425.90981102188135Q1384.4936539057471 431.58930813631616 1385.6719728091566 437.36307076302376L1385.6719728091566 437.36307076302376L1386.3553977731344 437.36307076302376Q1387.6986813230214 431.58930813631616 1389.0655312509766 425.90981102188135Q1390.4323811789318 420.23031390744654 1391.9406293752963 414.45655128073895L1391.9406293752963 414.45655128073895L1404.666473532121 366.7817684487821L1418.240707299401 366.7817684487821L1431.1550824807714 414.45655128073895Q1432.663330677136 420.23031390744654 1434.1244461173642 425.90981102188135Q1435.5619951795238 431.58930813631616 1436.9052787294108 437.36307076302376L1436.9052787294108 437.36307076302376L1437.5887036933887 437.36307076302376Q1438.9555536213438 431.58930813631616 1440.2281380370264 425.90981102188135Q1441.500722452709 420.23031390744654 1442.6790413561184 414.45655128073895L1442.6790413561184 414.45655128073895L1454.7214605489658 366.7817684487821L1467.9657650232907 366.7817684487821L1445.9076351514614 449.2405253093936L1428.9398429423613 449.2405253093936L1417.0623883959915 404.95930091925675Q1415.5305738215588 399.0205736460718 1414.2579894058763 393.2468110193642Q1412.9854049901937 387.4730483926566 1411.453590415761 381.20439182651694L1411.453590415761 381.20439182651694L1410.7937318298518 381.20439182651694Q1409.4268819018966 387.4730483926566 1408.060031973941 393.341076531637Q1406.716748424054 399.18553829254915 1405.0199692031442 405.12426556573405L1405.0199692031442 405.12426556573405L1393.472443949729 449.2405253093936ZM1507.5101474217208 451.2672338232583L1507.5101474217208 451.2672338232583Q1498.6727556461478 451.2672338232583 1490.7073198590983 447.9679408937111Q1482.7183176939802 444.66864796416394 1476.7795904207956 439.9082395943887L1476.7795904207956 439.9082395943887L1483.7552383289812 430.5759538793838Q1489.1755052846656 434.81790193165875 1494.9492679113732 437.6223009217739Q1500.7230305380808 440.426699911889 1508.005041361153 440.426699911889L1508.005041361153 440.426699911889Q1516.1590081727481 440.426699911889 1520.2359915785455 436.60894666484154Q1524.2894086062752 432.79119341779403 1524.2894086062752 427.51232473051857L1524.2894086062752 427.51232473051857Q1524.2894086062752 423.2703766782436 1521.508575994228 420.39527855392396Q1518.7041770041128 417.52018042960424 1514.3679634395653 415.5641710499441Q1510.0553162530855 413.608161670284 1505.4598725297878 411.911382449374L1505.4598725297878 411.911382449374Q1499.6861099030803 409.6961429109638 1494.1008783009183 406.91531029891684Q1488.4920803206878 404.11091130880175 1484.9335572323907 399.60973309777665Q1481.3750341440932 395.10855488675156 1481.3750341440932 388.15647335663425L1481.3750341440932 388.15647335663425Q1481.3750341440932 378.1407626776517 1488.9162751259155 371.4479113062846Q1496.481082485806 364.7314935568492 1509.8667852285403 364.7314935568492L1509.8667852285403 364.7314935568492Q1517.5022917226352 364.7314935568492 1524.1244439597976 367.46519341275973Q1530.7465961969601 370.1753268906021 1535.5070045667353 374.0637792718541L1535.5070045667353 374.0637792718541L1528.7198876830953 382.90117104742694Q1524.4779396308204 379.67257725208435 1519.8824959075228 377.64586873821963Q1515.3106185622933 375.59559384628676 1509.8667852285403 375.59559384628676L1509.8667852285403 375.59559384628676Q1502.0663140879678 375.59559384628676 1498.4135254873977 379.15411693458407Q1494.7843032648957 382.7362064009496 1494.7843032648957 387.4730483926566L1494.7843032648957 387.4730483926566Q1494.7843032648957 391.38506715197684 1497.3294720962608 393.83597047106906Q1499.874640927626 396.31044016822943 1503.9280579553551 398.077918523344Q1508.005041361153 399.86896325652674 1512.6004850844506 401.7307071239141L1512.6004850844506 401.7307071239141Q1518.5392123576357 403.9459466623244 1524.2894086062752 406.72677927437127Q1530.0631712329823 409.5311782644864 1533.88092448003 414.19732112198886Q1537.6986777270777 418.8634639794913 1537.6986777270777 426.66393512006357L1537.6986777270777 426.66393512006357Q1537.6986777270777 433.28608735722617 1534.2344201510532 438.89488533745634Q1530.7465961969601 444.48011693961837 1524.0537448255932 447.8736753814384Q1517.3373270761576 451.2672338232583 1507.5101474217208 451.2672338232583Z " fill="#c8c8c8" transform="matrix(0.5882350892592252,0,0,0.5882350892592252,-29.52831918345116,63.8889261265453)"/></g></svg>